<svg width="41" height="62" viewBox="0 0 41 62" fill="none" xmlns="http://www.w3.org/2000/svg"><g opacity=".5" fill="#149080"><path d="M15.5 37.7c-.3 1-.2 2.1 0 3.5.5 2.6 1.7 6 2.5 9.7h5.2c.7-3.6 1.9-7 2.5-9.7a7 7 0 0 0 0-3.5c-.3-1-1-1.6-2-2.3h-6.2c-1.2.7-1.8 1.4-2 2.3ZM27.5 57.5h-14c-1.4 0-2.4 1-2.4 2.2V62H30v-2.2c0-1.2-1-2.2-2.4-2.2ZM34.8 2.2h-12c0-1.2-1-2.2-2.3-2.2-1.3 0-2.3 1-2.3 2.2h-12L0 27.5a5 5 0 0 1 2.7-1c1.4 0 2.2.8 3 1.4.6.6 1.1.8 1.3.8.3 0 .9-.3 1.6-.8.7-.5 1.6-1.4 3-1.4 1.3 0 2.2.8 2.9 1.4.7.5 1.2.8 1.5.8l.6-.2c.2 0 .5-.4 1-.6.5-.4 1-1 2-1.2h.9c1.3 0 2.2.7 3 1.3.7.5 1.2.8 1.5.8.3 0 .8-.3 1.4-.8.7-.6 1.6-1.4 3-1.4s2.2.8 3 1.4c.2.3.5.5.8.6l.7.2c.3 0 .8-.3 1.4-.9.7-.6 1.6-1.4 3-1.4 1 0 1.8.5 2.6 1L34.8 2.2ZM24 53h-7c-.8 0-1.2.6-1.2 1.1 0 .6.5 1.1 1.1 1.1h7c.8 0 1.2-.5 1.2-1 0-.6-.4-1.1-1.1-1.1Z"/><path d="m20.5 28.7-.6.2-.6.4V33h2.3v-3.6c-.5-.4-.9-.7-1.1-.7Z"/></g></svg>