<svg width="32" height="32" viewBox="0 0 32 32" fill="none" xmlns="http://www.w3.org/2000/svg"><rect width="32" height="32" rx="8" fill="#EEE"/><path d="M24.6 17.4c0-2.2-.4-4.5-.4-6.8 0-1.8.3-3.8-.3-5.5v-.6c.2-1-2.8-.4-3.2.4-.3.3-.5.5-.4.9l.1.2c-.6 2.7-1.4 5.4-2.2 8L17 17c-.6-.9-1-1.8-1.5-2.8-1.2-3-2.2-6-3.7-8.7.2-1.3-2.8-1.2-3.4 0a7.1 7.1 0 0 0-.3 4.5c.2 1.7.3 3.4.3 5.2 0 3.3.4 6.7.4 10-.4.4-.5.8-.1 1.2l.5.5c.8.6 3 .1 3-1 0-3.6-.2-7-.3-10.6v-1l.1.4c.6 1.3 1.2 2.7 2 4 .7 1.2 1 2.5 1.5 3.9-.2.1-.3.4-.2.6l.3.3c.5.5 1.6.2 2.1 0 .3 0 .5-.3.7-.3.3-.2.8-.6.6-1v-.3c.4-1.1.5-2.2.8-3.4L21 15l.2 1.6c.2 2.2 0 4.3 0 6.5 0 .7 0 1.3.2 2 0 .3.3 1.6.2 1.7-.5.5-.3 1 .4 1.1a3 3 0 0 0 2.4-.5c1-1 .5-2.5.3-3.7-.5-2 0-4.2 0-6.3Z" fill="#000"/></svg>