<svg width="28" height="23" fill="currentColor" xmlns="http://www.w3.org/2000/svg"><path d="m17.9 11.3-5.3-3.5a.7.7 0 0 0-1 .5v7a.7.7 0 0 0 1 .6l5.3-3.5a.7.7 0 0 0 0-1.1Zm-5 2.8V9.6l3.4 2.2-3.4 2.3Zm12.5-8.6A2.4 2.4 0 0 0 23.9 4c-3.7-1.4-9.6-1.4-9.9-1.4-.3 0-6.2 0-10 1.4a2.4 2.4 0 0 0-1.4 1.6c-.3 1.1-.6 3-.6 6.3s.3 5.3.6 6.3a2.4 2.4 0 0 0 1.5 1.7c3.7 1.4 9.6 1.4 9.9 1.4.8 0 6.4 0 10-1.4a2.4 2.4 0 0 0 1.4-1.7c.3-1 .6-3 .6-6.3 0-3.2-.3-5.2-.6-6.3ZM24 17.8a1 1 0 0 1-.6.7C20 20 14 20 14 20s-6 0-9.5-1.4a1 1 0 0 1-.6-.7c-.3-1-.6-2.8-.6-6 0-3 .3-5 .6-6a1 1 0 0 1 .6-.7C8 3.8 14 3.8 14 3.8s6 0 9.5 1.3a1 1 0 0 1 .6.8c.3 1 .6 2.8.6 6 0 3-.3 4.9-.6 6Z"/></svg>