<svg width="61" height="61" fill="none" xmlns="http://www.w3.org/2000/svg"><path opacity=".5" d="M0 44.7 27.9 61V37.2L0 20.8v24Zm52.2-32v2.6c0 1.8-3.6 3.3-7.9 3.3-4.3 0-7.8-1.5-7.8-3.4v-4.1c.3 1.7 3.7 3.1 7.8 3.1 4.4 0 7.9-1.5 7.9-3.4 0-1.8-3.6-3.3-7.9-3.3h-1l-5-3v3.2c0 1.8-3.6 3.4-7.9 3.4-2.7 0-5-.7-6.5-1.6l-.7-.6c-.4-.4-.6-.8-.6-1.2v-3l-5 2.8h-1c-4.4 0-7.9 1.5-7.9 3.3 0 1.9 3.6 3.4 7.9 3.4 4.1 0 7.5-1.4 7.8-3.1v4.2c0 1.8-3.6 3.3-7.8 3.3-4.4 0-7.9-1.5-7.9-3.4v-2.4l-6 3.6 27.9 16.4 27.9-16.3-6.3-3.8ZM38.3 23c0 1.9-3.5 3.4-7.8 3.4-4.4 0-7.8-1.5-7.8-3.4v-4c.3 1.8 3.6 3.2 7.8 3.2 4.2 0 7.5-1.4 7.8-3.2v4.2Zm-5.2 14.3V61L61 44.7V21.1L33.1 37.4ZM30.4 6.8c4.4 0 7.8-1.6 7.8-3.4 0-1.9-3.5-3.4-7.8-3.4-4.4 0-7.8 1.5-7.8 3.4 0 1.8 3.4 3.4 7.8 3.4Z" fill="#149080"/></svg>