<svg width="67" height="101" fill="none" xmlns="http://www.w3.org/2000/svg"><path d="M57.2 10.1a35.1 35.1 0 0 0-47.4 0 29.7 29.7 0 0 0 0 44.2s23.7 21.6 23.7 46.6c0-25 23.7-46.6 23.7-46.6a29.7 29.7 0 0 0 0-44.2Z" fill="#fff"/><path d="M47.7 46.1c-.6-3.2.1-6.8 0-10.2 0-3.7-.7-7.4-.7-11 0-3 .5-6.2-.5-9.1l.2-1c.3-1.5-4.7-.7-5.4.6-.5.4-.7.9-.5 1.3l.1.4a101 101 0 0 1-5.6 18 67 67 0 0 1-2.3-4.7c-2-4.8-3.8-9.7-6.1-14.2.3-2.1-4.6-2-5.5 0-1.1 2.4-1 4.7-.6 7.2.4 2.9.5 5.7.5 8.6l.6 16.5c-.5.6-.6 1.2 0 1.9.1.3.4.5.7.8 1.4 1 5 .2 5-1.8 0-5.7-.4-11.4-.6-17.2v-1.6l.2.6c1 2.1 1.8 4.3 3.2 6.4 1.2 2 1.8 4.3 2.5 6.5-.3.3-.4.6-.3 1-.1.2 0 .3.4.4 1 .8 2.6.4 3.5 0l1.3-.6c.5-.2 1.2-1 1-1.5l-.1-.4c.7-1.8 1-3.6 1.4-5.5a38 38 0 0 1 1.8-5.7l.2 2.5c.3 3.6 0 7 0 10.6 0 1.2.1 2.3.3 3.4.1.5.5 2.5.4 2.6-.9.8-.6 1.8.5 2 1.4.3 3-.1 4-1 1.6-1.4.8-3.8.4-5.8Z" fill="#6BC6B3"/></svg>